<?xml version="1.0" standalone="no"?>
<!DOCTYPE svg PUBLIC "-//W3C//DTD SVG 20010904//EN"
 "http://www.w3.org/TR/2001/REC-SVG-20010904/DTD/svg10.dtd">
<svg version="1.0" xmlns="http://www.w3.org/2000/svg"
 width="128.000000pt" height="128.000000pt" viewBox="0 0 128.000000 128.000000"
 preserveAspectRatio="xMidYMid meet">

<g transform="translate(0.000000,128.000000) scale(0.100000,-0.100000)"
fill="#000000" stroke="none">
<path d="M501 1164 c-79 -21 -129 -46 -196 -97 -258 -196 -282 -580 -50 -812
105 -105 228 -155 379 -155 166 0 272 44 386 159 80 81 119 146 145 247 19 75
19 194 0 269 -48 183 -207 342 -390 390 -73 19 -202 18 -274 -1z m248 -69
c171 -41 301 -167 347 -338 29 -109 12 -248 -44 -351 -49 -91 -185 -207 -212
-180 -19 20 -110 186 -105 194 2 4 15 10 27 13 13 2 30 7 39 11 11 5 26 -8 53
-49 33 -50 39 -55 54 -43 36 29 63 66 94 128 30 59 33 73 33 155 0 80 -3 97
-32 158 -76 160 -252 257 -415 228 -312 -55 -449 -405 -248 -634 l39 -44 -30
-28 -29 -29 -41 40 c-22 21 -54 68 -72 104 -31 63 -32 67 -32 205 0 137 1 141
32 208 95 200 319 304 542 252z m58 -245 c48 -29 76 -92 77 -170 1 -80 -22
-132 -73 -165 -41 -27 -56 -29 -198 -27 l-103 2 0 55 0 55 94 -6 c123 -9 162
-1 181 36 8 16 15 38 15 50 0 33 -27 78 -52 86 -13 4 -87 6 -166 5 -78 -1
-151 1 -162 4 -16 5 -20 15 -20 51 l0 44 188 0 c168 0 190 -2 219 -20z m-98
-165 l20 -35 -53 0 c-51 0 -55 2 -75 35 l-20 35 53 0 c51 0 55 -2 75 -35z
m-89 -325 l0 -60 -55 0 -55 0 0 60 0 60 55 0 55 0 0 -60z m-220 -75 c-7 -8
-17 -15 -22 -15 -6 0 -5 7 2 15 7 8 17 15 22 15 6 0 5 -7 -2 -15z m47 -43 c-6
-13 -13 -19 -15 -13 -2 6 -8 8 -14 5 -5 -3 -4 3 3 13 18 30 40 26 26 -5z m51
-17 c-6 -14 -13 -23 -16 -21 -7 7 9 46 18 46 5 0 4 -11 -2 -25z m288 -12 c-7
-17 -8 -17 -17 0 -12 21 -2 44 13 29 6 -6 8 -19 4 -29z m-60 15 c4 -7 3 -8 -4
-4 -7 4 -12 3 -12 -3 0 -5 5 -13 10 -16 12 -8 13 -25 1 -25 -10 0 -22 40 -15
52 7 11 11 10 20 -4z m-106 -24 c0 -14 -4 -23 -10 -19 -5 3 -10 15 -10 26 0
10 5 19 10 19 6 0 10 -12 10 -26z m47 -16 c-3 -7 -5 -2 -5 12 0 14 2 19 5 13
2 -7 2 -19 0 -25z"/>
</g>
</svg>
